<?xml version="1.0" standalone="no"?>
<!DOCTYPE svg PUBLIC "-//W3C//DTD SVG 20010904//EN"
 "http://www.w3.org/TR/2001/REC-SVG-20010904/DTD/svg10.dtd">
<svg version="1.0" xmlns="http://www.w3.org/2000/svg"
 width="1551.000000pt" height="1663.000000pt" viewBox="0 0 1551.000000 1663.000000"
 preserveAspectRatio="xMidYMid meet">

<g transform="translate(0.000000,1663.000000) scale(0.100000,-0.100000)"
fill="#000000" stroke="none">
<path d="M0 8315 l0 -8315 7755 0 7755 0 0 8315 0 8315 -7755 0 -7755 0 0
-8315z m8100 5545 c233 -14 497 -48 735 -96 197 -39 524 -125 647 -169 40 -15
129 -46 198 -70 69 -23 163 -59 210 -80 47 -20 117 -50 156 -65 100 -40 437
-210 574 -289 509 -297 842 -553 1261 -971 411 -409 680 -751 951 -1210 91
-153 259 -481 328 -640 256 -589 428 -1274 480 -1914 16 -200 13 -814 -5
-1001 -66 -682 -225 -1294 -497 -1909 -230 -521 -560 -1039 -954 -1496 -76
-88 -443 -457 -579 -582 -136 -124 -461 -371 -665 -503 -298 -194 -334 -212
-358 -182 -7 8 -27 59 -45 113 -18 55 -62 178 -96 274 -104 288 -151 417 -206
575 -30 83 -66 184 -80 225 -15 41 -47 131 -72 200 -24 69 -76 215 -115 325
-38 110 -95 270 -125 355 -58 165 -80 226 -168 470 -133 369 -215 617 -215
652 0 45 34 147 123 363 36 88 85 210 110 270 24 61 63 155 85 210 69 170 169
426 200 515 40 112 59 157 72 165 20 12 68 -51 88 -116 11 -35 48 -140 82
-234 34 -93 110 -316 170 -495 162 -486 456 -1330 527 -1510 79 -204 146 -380
158 -417 31 -94 62 -108 114 -50 107 118 163 182 214 245 31 40 81 102 111
140 69 85 228 323 312 465 127 214 267 499 351 717 80 209 181 552 208 712 9
50 27 143 40 208 50 246 60 374 60 800 0 458 -12 602 -76 924 -66 327 -98 445
-202 736 -186 522 -506 1075 -856 1480 -233 270 -358 395 -591 590 -444 372
-980 676 -1505 857 -309 106 -419 136 -680 187 -348 68 -581 89 -975 88 -272
0 -345 -4 -535 -26 -121 -14 -247 -32 -280 -40 -34 -8 -106 -22 -160 -31 -198
-31 -636 -168 -889 -277 -277 -119 -681 -341 -894 -491 -451 -319 -817 -676
-1149 -1122 -476 -640 -815 -1494 -898 -2262 -8 -76 -20 -181 -26 -233 -17
-147 -14 -608 5 -780 57 -492 103 -717 227 -1093 82 -246 141 -392 254 -622
221 -450 514 -864 881 -1244 132 -137 185 -178 217 -165 8 3 31 49 50 102 56
154 120 318 169 437 26 61 90 220 143 355 53 135 115 292 139 350 24 58 60
148 79 200 20 52 55 140 78 195 23 55 69 170 102 255 76 196 119 307 195 495
33 83 109 272 167 420 169 427 179 445 259 488 41 22 43 22 578 22 618 0 581
6 560 -84 -6 -28 -37 -115 -68 -193 -31 -79 -73 -190 -94 -248 -21 -58 -45
-121 -53 -140 -27 -60 -109 -272 -132 -340 -13 -36 -37 -101 -54 -145 -18 -44
-50 -129 -73 -190 -22 -60 -59 -159 -83 -220 -41 -104 -89 -231 -175 -460 -21
-55 -67 -178 -104 -272 -36 -95 -66 -175 -66 -178 0 -3 -31 -86 -69 -183 -38
-97 -115 -298 -171 -447 -302 -801 -287 -763 -613 -1522 -107 -249 -200 -459
-207 -468 -16 -19 -63 -19 -100 0 -80 41 -498 296 -588 359 -162 112 -346 251
-482 364 -136 113 -412 371 -500 467 -276 304 -326 364 -581 715 -48 66 -192
295 -288 457 -131 223 -337 673 -434 948 -114 323 -213 705 -257 990 -12 77
-30 196 -41 265 -29 194 -39 368 -39 719 0 350 9 513 41 771 87 693 287 1344
601 1960 124 243 161 308 295 515 270 420 496 697 855 1050 185 183 317 301
478 431 89 72 366 271 465 333 39 25 94 60 124 79 154 100 578 323 736 387 44
18 114 47 155 65 505 213 1225 386 1751 419 182 12 808 12 999 1z m1824 -6219
c13 -11 16 -23 11 -49 -7 -38 -109 -318 -192 -527 -30 -77 -70 -180 -88 -230
-19 -49 -52 -137 -75 -195 -22 -58 -56 -148 -75 -200 -18 -52 -63 -171 -100
-265 -37 -93 -70 -181 -75 -195 -4 -14 -49 -133 -100 -265 -50 -132 -102 -269
-115 -305 -13 -36 -48 -129 -79 -207 -54 -136 -112 -291 -236 -623 -32 -85
-99 -263 -150 -395 -50 -132 -119 -314 -153 -405 -90 -239 -121 -266 -307
-271 -220 -5 -926 14 -956 26 -23 9 -33 22 -43 56 -7 24 -40 121 -73 214 -33
94 -73 206 -88 250 -15 44 -65 184 -110 310 -46 127 -98 273 -116 325 -42 120
-112 315 -159 445 -57 154 -154 433 -175 500 -10 33 -30 92 -44 130 -41 111
-32 179 44 360 23 55 62 150 86 212 24 62 55 138 70 170 14 32 59 144 100 248
41 105 90 226 109 270 18 44 54 140 79 214 45 131 59 161 78 161 21 0 59 -57
78 -114 10 -34 34 -104 53 -156 109 -304 143 -402 192 -555 30 -93 72 -222 94
-285 21 -63 48 -142 59 -175 10 -33 70 -202 132 -375 119 -335 183 -525 194
-577 15 -69 55 -13 119 167 25 69 59 159 76 200 16 41 56 143 87 225 178 474
273 724 289 765 37 93 88 228 135 355 28 77 76 202 106 277 30 75 54 139 54
143 0 4 23 64 50 135 56 141 93 192 155 215 59 21 1033 17 1059 -4z"/>
</g>
</svg>
